# xmcd
#
# Track frame offsets: 
#        150
#        33673
#        64323
#        85676
#        106203
#        137434
#        155261
#        178299
#        208461
#        237167
#        262371
#        303817
#
# Disc length: 4453 seconds
#
# Revision: 0
# Processed by: cddbd v1.5.2PL0 Copyright (c) Steve Scherf et al.
# Submitted via: ExactAudioCopy v0.99pb5
#
DISCID=aa11630c
DTITLE=Trampled Under Foot - May I Be Excued
DYEAR=2008
DGENRE=Blues
TTITLE0=Fog
TTITLE1=Jonny Cheat
TTITLE2=Love My Baby
TTITLE3=You're Too Big To Carry
TTITLE4=May I Be Excused
TTITLE5=Waiting On The Line
TTITLE6=My Fault To Stay
TTITLE7=Have I Ever Told You
TTITLE8=Hot Headed Woman
TTITLE9=You Call That Love
TTITLE10=Mississippi River
TTITLE11=Comin' Home To You
EXTD=
EXTT0=
EXTT1=
EXTT2=
EXTT3=
EXTT4=
EXTT5=
EXTT6=
EXTT7=
EXTT8=
EXTT9=
EXTT10=
EXTT11=
PLAYORDER=
